# xmcd
#
# Track frame offsets:
#	150
#	12037
#	25075
#	36420
#	49455
#	65620
#	78580
#	90287
#	101770
#	113075
#	126405
#	137325
#	150462
#	162845
#	176595
#	187412
#	200470
#	211600
#	222987
#	238662
#	252630
#	264007
#	277287
#	289312
#
# Disc length: 4019 seconds
#
# Revision: 1
# Processed by: cddbd v1.4PL0 Copyright (c) Steve Scherf et al.
# Submitted via: EasyCDDAExtractor 5.1.0
#
DISCID=620fb118
DTITLE=Matti Norlin - Pre war blues
DYEAR=1995
DGENRE=Blues
TTITLE0=Crossroad blues
TTITLE1=Untrue blues
TTITLE2=I´m throwing up my hands
TTITLE3=Fixin´ to die blues
TTITLE4=Mississippi blues
TTITLE5=Piccolo rag
TTITLE6=Black horse blues
TTITLE7=Stones in my passway
TTITLE8=Sic em´dogs on
TTITLE9=Stone pony blues
TTITLE10=Drunken harted man
TTITLE11=How you want it done
TTITLE12=Shake em´on down
TTITLE13=Statesboro blues
TTITLE14=Milkcow blues boogie
TTITLE15=My black mama
TTITLE16=Jivin´ woman blues
TTITLE17=Dead shrimp blues
TTITLE18=Big road blues
TTITLE19=Mistreatin´ mama blues
TTITLE20=Love in vain
TTITLE21=Ain´t you sorry
TTITLE22=Police dog blues
TTITLE23=Future blues
EXTD=
EXTT0=
EXTT1=
EXTT2=
EXTT3=
EXTT4=
EXTT5=
EXTT6=
EXTT7=
EXTT8=
EXTT9=
EXTT10=
EXTT11=
EXTT12=
EXTT13=
EXTT14=
EXTT15=
EXTT16=
EXTT17=
EXTT18=
EXTT19=
EXTT20=
EXTT21=
EXTT22=
EXTT23=
PLAYORDER=
